<svg xmlns="http://www.w3.org/2000/svg" width="155" height="38" viewBox="0 0 155 38" fill="none"><path d="M72.1327 30.0299C70.4781 30.0299 68.9367 29.7126 67.5087 29.0779C66.0921 28.4319 64.8511 27.5422 63.7857 26.4089C62.7317 25.2642 61.9044 23.9439 61.3037 22.4479C60.7144 20.9519 60.4197 19.3596 60.4197 17.6709C60.4197 15.8916 60.7371 14.2539 61.3717 12.7579C62.0064 11.2619 62.8734 9.96422 63.9727 8.86489C65.0721 7.75422 66.3244 6.89289 67.7297 6.28089C69.1464 5.66889 70.6311 5.36289 72.1837 5.36289C73.9404 5.36289 75.6291 5.77089 77.2497 6.58689C78.8704 7.40289 80.2814 8.62689 81.4827 10.2589L78.3207 11.9759C77.5047 10.9559 76.5527 10.1852 75.4647 9.66389C74.3881 9.14256 73.2831 8.88189 72.1497 8.88189C71.0504 8.88189 70.0077 9.10856 69.0217 9.56189C68.0357 10.0039 67.1631 10.6272 66.4037 11.4319C65.6444 12.2252 65.0437 13.1602 64.6017 14.2369C64.1711 15.3022 63.9557 16.4639 63.9557 17.7219C63.9557 18.9346 64.1654 20.0736 64.5847 21.1389C65.0154 22.2042 65.6047 23.1392 66.3527 23.9439C67.1121 24.7372 67.9847 25.3606 68.9707 25.8139C69.9681 26.2672 71.0334 26.4939 72.1667 26.4939C73.0054 26.4939 73.8101 26.3579 74.5807 26.0859C75.3514 25.8139 76.0654 25.4286 76.7227 24.9299C77.3914 24.4199 77.9751 23.8136 78.4737 23.1109C78.9724 22.4082 79.3691 21.6262 79.6637 20.7649H74.6147V17.6369H83.8117C83.8344 19.3369 83.5397 20.9349 82.9277 22.4309C82.3271 23.9269 81.4884 25.2472 80.4117 26.3919C79.3464 27.5252 78.1054 28.4149 76.6887 29.0609C75.2721 29.7069 73.7534 30.0299 72.1327 30.0299ZM94.2458 30.0299C92.6818 30.0299 91.2538 29.6276 89.9618 28.8229C88.6811 28.0182 87.6554 26.9416 86.8848 25.5929C86.1254 24.2329 85.7458 22.7312 85.7458 21.0879C85.7458 19.8412 85.9668 18.6796 86.4088 17.6029C86.8508 16.5149 87.4571 15.5629 88.2278 14.7469C89.0098 13.9196 89.9164 13.2736 90.9478 12.8089C91.9791 12.3442 93.0784 12.1119 94.2458 12.1119C95.5491 12.1119 96.7448 12.3839 97.8328 12.9279C98.9208 13.4606 99.8501 14.2029 100.621 15.1549C101.391 16.0956 101.958 17.1836 102.321 18.4189C102.683 19.6429 102.791 20.9462 102.644 22.3289H89.5368C89.6841 23.1109 89.9674 23.8192 90.3868 24.4539C90.8174 25.0772 91.3614 25.5702 92.0188 25.9329C92.6874 26.2956 93.4298 26.4826 94.2458 26.4939C95.1071 26.4939 95.8891 26.2786 96.5918 25.8479C97.3058 25.4172 97.8894 24.8222 98.3428 24.0629L101.93 24.8959C101.25 26.4032 100.224 27.6386 98.8528 28.6019C97.4814 29.5539 95.9458 30.0299 94.2458 30.0299ZM89.4178 19.6259H99.0738C98.9604 18.8099 98.6714 18.0732 98.2068 17.4159C97.7534 16.7472 97.1811 16.2202 96.4898 15.8349C95.8098 15.4382 95.0618 15.2399 94.2458 15.2399C93.4411 15.2399 92.6931 15.4326 92.0018 15.8179C91.3218 16.2032 90.7551 16.7302 90.3018 17.3989C89.8598 18.0562 89.5651 18.7986 89.4178 19.6259ZM110.626 29.9109C109.73 29.8542 108.858 29.6729 108.008 29.3669C107.158 29.0609 106.41 28.6472 105.764 28.1259C105.129 27.5932 104.653 26.9699 104.336 26.2559L107.345 24.9639C107.492 25.2699 107.747 25.5702 108.11 25.8649C108.484 26.1596 108.92 26.4032 109.419 26.5959C109.917 26.7772 110.439 26.8679 110.983 26.8679C111.515 26.8679 112.008 26.7942 112.462 26.6469C112.926 26.4882 113.306 26.2502 113.601 25.9329C113.895 25.6156 114.043 25.2359 114.043 24.7939C114.043 24.2952 113.873 23.9099 113.533 23.6379C113.204 23.3546 112.79 23.1392 112.292 22.9919C111.793 22.8446 111.294 22.7029 110.796 22.5669C109.685 22.3176 108.665 21.9776 107.736 21.5469C106.818 21.1049 106.087 20.5439 105.543 19.8639C104.999 19.1726 104.727 18.3282 104.727 17.3309C104.727 16.2429 105.021 15.3022 105.611 14.5089C106.2 13.7042 106.971 13.0866 107.923 12.6559C108.886 12.2252 109.912 12.0099 111 12.0099C112.36 12.0099 113.606 12.2989 114.74 12.8769C115.873 13.4549 116.74 14.2482 117.341 15.2569L114.536 16.9229C114.366 16.5829 114.111 16.2769 113.771 16.0049C113.431 15.7329 113.045 15.5176 112.615 15.3589C112.184 15.1889 111.736 15.0926 111.272 15.0699C110.694 15.0472 110.155 15.1152 109.657 15.2739C109.169 15.4212 108.778 15.6592 108.484 15.9879C108.189 16.3166 108.042 16.7359 108.042 17.2459C108.042 17.7446 108.217 18.1186 108.569 18.3679C108.92 18.6059 109.362 18.7986 109.895 18.9459C110.439 19.0932 110.994 19.2576 111.561 19.4389C112.569 19.7562 113.516 20.1472 114.4 20.6119C115.284 21.0652 115.998 21.6262 116.542 22.2949C117.086 22.9636 117.346 23.7796 117.324 24.7429C117.324 25.8082 117.001 26.7432 116.355 27.5479C115.72 28.3526 114.893 28.9646 113.873 29.3839C112.853 29.8032 111.77 29.9789 110.626 29.9109ZM129.211 16.1239H125.641L125.624 29.5879H122.088L122.105 16.1239H119.402V12.5879H122.105L122.088 7.24989H125.624L125.641 12.5879H129.211V16.1239ZM139.336 30.0299C137.772 30.0299 136.344 29.6276 135.052 28.8229C133.771 28.0182 132.745 26.9416 131.975 25.5929C131.215 24.2329 130.836 22.7312 130.836 21.0879C130.836 19.8412 131.057 18.6796 131.499 17.6029C131.941 16.5149 132.547 15.5629 133.318 14.7469C134.1 13.9196 135.006 13.2736 136.038 12.8089C137.069 12.3442 138.168 12.1119 139.336 12.1119C140.9 12.1119 142.322 12.5142 143.603 13.3189C144.895 14.1236 145.92 15.2059 146.68 16.5659C147.45 17.9259 147.836 19.4332 147.836 21.0879C147.836 22.3232 147.615 23.4792 147.173 24.5559C146.731 25.6326 146.119 26.5846 145.337 27.4119C144.566 28.2279 143.665 28.8682 142.634 29.3329C141.614 29.7976 140.514 30.0299 139.336 30.0299ZM139.336 26.4939C140.276 26.4939 141.121 26.2446 141.869 25.7459C142.617 25.2472 143.206 24.5899 143.637 23.7739C144.079 22.9466 144.3 22.0512 144.3 21.0879C144.3 20.1019 144.073 19.1952 143.62 18.3679C143.178 17.5406 142.583 16.8832 141.835 16.3959C141.087 15.8972 140.254 15.6479 139.336 15.6479C138.406 15.6479 137.562 15.8972 136.803 16.3959C136.055 16.8946 135.46 17.5576 135.018 18.3849C134.587 19.2122 134.372 20.1132 134.372 21.0879C134.372 22.0966 134.598 23.0089 135.052 23.8249C135.505 24.6409 136.106 25.2926 136.854 25.7799C137.613 26.2559 138.44 26.4939 139.336 26.4939Z" fill="#0E191E"></path><mask id="mask0_80_1556" style="mask-type:luminance" maskUnits="userSpaceOnUse" x="0" y="0" width="52" height="38"><path d="M51.0752 0H0V38H51.0752V0Z" fill="white"></path></mask><g mask="url(#mask0_80_1556)"><path fill-rule="evenodd" clip-rule="evenodd" d="M25.524 6.99419C29.7784 6.99419 33.5241 9.21621 35.6641 12.5621H43.5298C43.4226 12.2676 43.3154 11.973 43.1818 11.6785C42.2186 9.34925 40.8003 7.2616 39.0347 5.49431C37.777 4.23603 37.777 2.20134 39.0347 0.943712C40.2923 -0.313909 42.3257 -0.314571 43.5827 0.943712C45.9107 3.27296 47.8099 6.11055 49.1211 9.24269C50.3787 12.2676 51.0739 15.5606 51.0739 18.9872C51.0739 22.3603 50.4051 25.6798 49.1211 28.7583C47.8371 31.8369 45.9642 34.6744 43.5827 37.0573C42.3252 38.3156 40.2916 38.3156 39.0347 37.0573C37.7777 35.799 37.777 33.7643 39.0347 32.5067C40.8539 30.6864 42.2451 28.5981 43.1818 26.3225C44.1186 24.0469 44.6266 21.5575 44.6266 18.9872C44.6266 17.8898 44.5466 16.8189 44.3593 15.775H37.1089H25.5512C23.7855 15.775 22.3408 17.2206 22.3408 18.9872C22.3408 20.7539 23.7855 22.1995 25.5512 22.1995H37.1096C35.6912 27.2591 31.0631 30.9803 25.5512 30.9803C18.916 30.9803 13.5384 25.5997 13.5384 18.9607C13.5384 12.3219 18.916 6.94124 25.5512 6.94124L25.524 6.99419ZM12.0128 32.506C13.2705 33.7643 13.2705 35.799 12.0128 37.0566C10.7552 38.3149 8.7217 38.3149 7.46478 37.0566C2.83601 32.4259 0 26.0544 0 18.9872C0 15.5606 0.695937 12.2411 1.95286 9.24269C3.26402 6.11055 5.13683 3.27296 7.49125 0.943712C8.74883 -0.314571 10.7824 -0.314571 12.0394 0.943712C13.2962 2.20199 13.2969 4.23669 12.0394 5.49431C10.2737 7.26094 8.85533 9.37573 7.89214 11.6785C6.9554 13.927 6.44734 16.3899 6.44734 18.9866C6.44734 24.26 8.58807 29.025 12.0394 32.5054L12.0128 32.506Z" fill="#EC4813"></path></g></svg>